<?xml version="1.0" encoding="UTF-8"?>
<svg id="Layer_40" data-name="Layer 40" xmlns="http://www.w3.org/2000/svg" xmlns:xlink="http://www.w3.org/1999/xlink" viewBox="0 0 4498.49 3000">
  <defs>
    <style>
      .cls-1 {
        fill: #e39892;
      }

      .cls-2 {
        fill: none;
      }

      .cls-3 {
        fill: #291112;
      }

      .cls-4 {
        fill: #191312;
      }

      .cls-5 {
        fill: #191926;
      }

      .cls-6 {
        fill: #9d3c29;
      }

      .cls-7 {
        fill: #9c3d2c;
      }

      .cls-8 {
        fill: #341713;
      }

      .cls-9 {
        fill: #443e63;
      }

      .cls-10 {
        fill: url(#radial-gradient-2);
      }

      .cls-11 {
        fill: #863626;
      }

      .cls-12 {
        fill: url(#linear-gradient-3);
      }

      .cls-13 {
        fill: url(#linear-gradient-2);
      }

      .cls-14 {
        fill: #231f20;
      }

      .cls-15 {
        fill: #17110f;
      }

      .cls-16 {
        fill: #322836;
      }

      .cls-17 {
        fill: #0e141c;
      }

      .cls-18 {
        fill: #1c1b2b;
      }

      .cls-19 {
        fill: #12141f;
      }

      .cls-20 {
        fill: url(#radial-gradient);
      }

      .cls-21 {
        fill: #11141a;
      }

      .cls-22 {
        fill: url(#linear-gradient);
      }

      .cls-23 {
        fill: #f9a66e;
      }

      .cls-24 {
        fill: #be8882;
      }

      .cls-25 {
        fill: #822d1b;
      }

      .cls-26 {
        fill: #1b1312;
      }

      .cls-27 {
        fill: #582314;
      }

      .cls-28 {
        fill: #782f19;
      }

      .cls-29 {
        fill: #1b1112;
      }

      .cls-30 {
        fill: #5e2213;
      }

      .cls-31 {
        fill: #e88c5f;
        opacity: .4;
      }

      .cls-32 {
        fill: #141627;
      }

      .cls-33 {
        fill: #a74739;
      }

      .cls-34 {
        fill: #5f527b;
      }

      .cls-35 {
        fill: #28253d;
      }

      .cls-36 {
        fill: #36273a;
      }

      .cls-37 {
        fill: #191211;
      }

      .cls-38 {
        fill: #fbb167;
      }

      .cls-39 {
        fill: #1c1110;
      }

      .cls-40 {
        fill: #222440;
      }

      .cls-41 {
        fill: #fbb166;
      }

      .cls-42 {
        fill: #46293a;
      }

      .cls-43 {
        fill: #15151d;
      }

      .cls-44 {
        fill: #302c41;
      }

      .cls-45 {
        fill: #8e391f;
      }

      .cls-46 {
        fill: #f89d57;
      }

      .cls-47 {
        fill: #ab4425;
      }

      .cls-48 {
        fill: #291111;
      }

      .cls-49 {
        fill: #131523;
      }

      .cls-50 {
        fill: #e16341;
      }

      .cls-51 {
        fill: #c95a3c;
      }

      .cls-52 {
        fill: #1a110f;
      }

      .cls-53 {
        fill: #2b130f;
      }

      .cls-54 {
        fill: #3a2e45;
      }

      .cls-55 {
        fill: #11131c;
      }

      .cls-56 {
        fill: #1f1010;
      }

      .cls-57 {
        fill: #773941;
      }

      .cls-58 {
        fill: #fdbe6d;
      }

      .cls-59 {
        fill: #dc7e61;
      }

      .cls-60 {
        fill: #7a2f1a;
      }

      .cls-61 {
        fill: #352941;
      }

      .cls-62 {
        fill: #171825;
      }

      .cls-63 {
        fill: #ffd475;
      }

      .cls-64 {
        clip-path: url(#clippath);
      }

      .cls-65 {
        fill: #c7593b;
      }

      .cls-66 {
        fill: #22253f;
      }

      .cls-67 {
        fill: #151826;
      }

      .cls-68 {
        fill: #29272f;
      }
    </style>
    <clipPath id="clippath">
      <rect class="cls-2" width="4498.49" height="3000"/>
    </clipPath>
    <linearGradient id="linear-gradient" x1="2451.03" y1="3086.02" x2="2451.03" y2="-63.47" gradientUnits="userSpaceOnUse">
      <stop offset=".42" stop-color="#d16444"/>
      <stop offset="1" stop-color="#4b3c63"/>
    </linearGradient>
    <linearGradient id="linear-gradient-2" x1="158.73" y1="1620.99" x2="158.73" y2="935.83" gradientUnits="userSpaceOnUse">
      <stop offset=".42" stop-color="#5b3345"/>
      <stop offset="1" stop-color="#41304c"/>
    </linearGradient>
    <linearGradient id="linear-gradient-3" x1="4230.25" y1="1727.59" x2="4230.25" y2="700.24" xlink:href="#linear-gradient-2"/>
    <radialGradient id="radial-gradient" cx="611.59" cy="426.98" fx="611.59" fy="426.98" r="187.27" gradientUnits="userSpaceOnUse">
      <stop offset="0" stop-color="#ffd475"/>
      <stop offset="1" stop-color="#fff" stop-opacity="0"/>
    </radialGradient>
    <radialGradient id="radial-gradient-2" cx="3819.46" cy="904.18" fx="3819.46" fy="904.18" r="187.27" gradientUnits="userSpaceOnUse">
      <stop offset="0" stop-color="#ffd475"/>
      <stop offset="1" stop-color="#2484c6" stop-opacity="0"/>
    </radialGradient>
  </defs>
  <g class="cls-64">
    <g>
      <rect class="cls-22" x="-204.42" y="-63.47" width="5310.9" height="3149.49"/>
      <path class="cls-14" d="M5106.98,3086.52H-204.92V-63.97h5311.9v3150.49ZM-203.92,3085.52h5309.9V-62.97H-203.92v3148.49Z"/>
    </g>
    <circle class="cls-38" cx="3836.85" cy="553.66" r="20.4"/>
    <circle class="cls-38" cx="4298.21" cy="492.72" r="14.42"/>
    <circle class="cls-38" cx="612.33" cy="846.42" r="16.74"/>
    <polygon class="cls-13" points="-38.12 935.83 129.37 935.83 129.37 1146.82 312.07 1146.82 312.07 1016.31 462.16 1016.31 462.16 1620.99 -144.7 1540.51 -38.12 935.83"/>
    <polygon class="cls-12" points="4521.03 859.09 4323.76 859.09 4323.76 700.24 4100.87 700.24 4100.87 1163.96 3880.54 1163.96 3880.54 1727.59 4579.96 1727.59 4521.03 859.09"/>
    <ellipse class="cls-20" cx="611.59" cy="426.98" rx="200.26" ry="173.31"/>
    <ellipse class="cls-10" cx="3819.46" cy="904.18" rx="200.26" ry="173.31"/>
    <rect class="cls-46" x="4334.48" y="1000.7" width="52.49" height="78.73"/>
    <rect class="cls-46" x="4254.11" y="1223.78" width="47.57" height="75.45"/>
    <rect class="cls-46" x="84.55" y="1243.61" width="50.81" height="65.03"/>
    <ellipse class="cls-63" cx="607.05" cy="363.24" rx="86.79" ry="51.6"/>
    <ellipse class="cls-63" cx="3819.46" cy="901.18" rx="76.01" ry="45.2"/>
    <path class="cls-16" d="M3934.86,1626.02s199.51,0,247.01-19c0,0,40.38,0,97.38-95.01,0,0,66.5-109.26,249.39-76l26.13,472.65-693.54-54.63,73.63-228.01Z"/>
    <path class="cls-61" d="M246.15,1545.84c-10.49,0-19-8.51-19-19V461.87c0-1.01.08-2.01.24-3,.45-2.79,11.59-68.49,69.64-87.84.64-.21,1.28-.39,1.94-.53l332.23-72.82c10.25-2.25,20.38,4.24,22.63,14.49,2.25,10.25-4.24,20.38-14.49,22.63l-331.17,72.59c-31.9,11.26-41.44,48.92-43.02,56.31v1063.15c0,10.49-8.51,19-19,19Z"/>
    <path class="cls-61" d="M4152.19,1859.49c-10.49,0-19-8.51-19-19v-858.57c-1.31-4.31-5.27-15.72-13.28-27.44-12.59-18.41-29.31-29.3-49.69-32.36-.1-.02-.2-.03-.3-.05l-303.94-50.66c-10.35-1.73-17.34-11.51-15.62-21.87,1.72-10.35,11.51-17.34,21.87-15.62l303.79,50.63c31.27,4.73,57.6,21.95,76.15,49.78,13.37,20.06,18.02,38.53,18.5,40.57.34,1.44.52,2.92.52,4.4v861.17c0,10.49-8.51,19-19,19Z"/>
    <polygon class="cls-54" points="-88.93 1534.34 4628.56 1926.09 4600.97 2786.82 -193.76 2621.29 -88.93 1534.34"/>
    <polygon class="cls-18" points="-48.82 1500 4610.92 1867.99 4537.49 1954.78 -82.2 1614.31 -48.82 1500"/>
    <path class="cls-18" d="M220.6,2475.11c-1.81,0-3.64-.54-5.22-1.68-38.33-27.38-67.58-78.56-86.94-152.13-14.23-54.06-17.47-99.61-17.6-101.52-.01-.21-.02-.41-.02-.62v-614.83c0-4.97,4.03-9,9-9s9,4.03,9,9v614.5c.62,8.17,14.9,181.29,97.02,239.95,4.04,2.89,4.98,8.51,2.09,12.55-1.76,2.46-4.52,3.77-7.33,3.77Z"/>
    <path class="cls-18" d="M2158.09,2598.16c-1.81,0-3.64-.54-5.22-1.68-38.33-27.38-67.58-78.56-86.94-152.13-14.23-54.06-17.47-99.61-17.6-101.52-.01-.21-.02-.41-.02-.62v-614.83c0-4.97,4.03-9,9-9s9,4.03,9,9v614.5c.62,8.17,14.9,181.29,97.02,239.95,4.04,2.89,4.98,8.51,2.09,12.55-1.76,2.46-4.52,3.77-7.33,3.77Z"/>
    <path class="cls-18" d="M4539.64,2656.27c-.76,0-1.54-.1-2.31-.3-48.59-12.85-89.24-35.55-120.82-67.47-25.28-25.55-44.76-56.96-57.91-93.36-21.59-59.79-18.85-112.48-18.52-117.68v-448.37c0-4.97,4.03-9,9-9s9,4.03,9,9v448.67c0,.22,0,.43-.02.65-.04.52-3.46,53.08,17.69,111.22,12.3,33.8,30.41,62.9,53.83,86.49,29.26,29.47,67.06,50.48,112.36,62.46,4.81,1.27,7.67,6.2,6.4,11-1.07,4.03-4.71,6.7-8.7,6.7Z"/>
    <polygon class="cls-5" points="4686.91 3211.45 -137.13 3181.42 -53.02 2466.11 486.19 2491.16 807.58 2506.09 1338.99 2530.78 1601.49 2542.98 2134.57 2567.74 2239.24 2572.61 2486.64 2584.1 3085.85 2611.94 3330.52 2623.3 4610.92 2682.79 4686.91 3211.45"/>
    <polygon class="cls-55" points="966.59 3067.63 623.4 3015.03 486.19 2491.16 807.58 2506.09 966.59 3067.63"/>
    <polygon class="cls-55" points="1601.49 2542.98 1502.65 3097.69 1234.62 3052.6 1338.99 2530.78 1601.49 2542.98"/>
    <polygon class="cls-55" points="2592.33 3080.16 2427 3080.16 2239.24 2572.61 2486.64 2584.1 2592.33 3080.16"/>
    <polygon class="cls-55" points="3330.52 2623.3 3301.24 3080.16 2973.08 3115.23 3085.85 2611.94 3330.52 2623.3"/>
    <path class="cls-40" d="M1831.19,1781.68s-32.75,108.06-80.23,140.8l-165.35,8.19s-55.54-43.12-96.31-92.74c-18.31-22.26-33.63-45.84-39.62-67.41-.64-2.31-1.18-4.59-1.6-6.85,0,0-29.46,98.23-32.74,140.8,0,0-1.64,58.94,1.64,101.51l-276.69,314.34-525.53-52.39-199.36-39.47s-67.43-83.17,11.24-173.08c0,0-132.18-37.99-157.08-162.51,0,0-12.46-96.74,14.36-188.69,0,0,118-407.1,216.23-539.72,0,0,96.6-147.34,189.92-155.53,0,0,8.18-121.15,111.33-171.9,0,0,54.02-29.47,126.06-18.01,0,0,31.11,8.18,62.21,8.18l301.24,122.79,96.6,24.56s24.56,29.47,24.56,73.67c0,0,31.1,9.83,106.41,94.96l225.94,258.68s157.17,153.89,86.77,379.82Z"/>
    <path class="cls-48" d="M3939.55,2180.13l.3,2.04,10.36,69.98,37.79,255.43c6.69,40.1-23.39,45.11-23.39,45.11h-103.58l-659.92-185.45-312.42-250.6-21.72-211.34c-50.12,106.09-95.23,114.44-95.23,114.44l-284.02-58.47c-60.14-98.58-36.75-170.41-36.75-170.41l219.78-308.25c110.85-283.76,257.51-317.02,257.51-317.02-2.21-42.12,42.12-75.37,42.12-75.37l381.31-70.94c186.22-4.44,226.12,115.28,226.12,115.28,201.74,11.08,332.54,230.55,332.54,230.55,148.53,248.3,176.22,639.59,176.22,639.59-20.04,152.04-147.02,175.43-147.02,175.43Z"/>
    <path class="cls-32" d="M1489.3,1837.93c-18.31-22.26-33.63-45.84-39.62-67.41l-1.6-6.85s50.35-163.28,48.76-182.31c0,0,9.21-17.13,10.68,9.41,0,0-26.82,149.3-18.22,247.16Z"/>
    <path class="cls-37" d="M3950.21,2252.15c-52.45.66-151.09-18.65-151.09-18.65l-22.41-67.8c90.85,25.01,150.87,18.28,163.14,16.47l10.36,69.98Z"/>
    <path class="cls-50" d="M3090.69,1224.81s-52.51-74.96-63.93,380.24l10.14,216.35,11.83,123.39s6.76,141.98-42.26,245.08l212.97,114.94,202.83-69.3-25.35-189.31s-10.14-566.23,33.8-802.86l4.66-64.19-19.11-29.3-325.59,74.96Z"/>
    <path class="cls-47" d="M1873.75,2523.16l-93.28,418.3h-397.88l77.24-501.37s-97.57,63.8-147.16,89.47l-191.66-8.91-39.8-1.85,62.15,395.96s.85,15.28-8.49,26.32l-387.92,79.67-17.35-20.75-127.65-503.46-132.55-6.16s-98.61-74.4-74.71-216.79c0,0,30.34-130.83,144.02-196.41,0,0,195.3-39.35,290.04-33.52l110.77,14.57s50.44,12.62,77.14,91.43c.3.88.6,1.77.89,2.67.22.69.45,1.39.67,2.09,0,0,.14.01.41.02,1.48.05,6.9.21,15.62-.17,35.46-1.52,125.44-11.76,225.91-72.72l252.14-138.46s123.88-52.47,237.57-39.35c0,0,157.4,11.66,182.18,209.88,0,0,21.86,84.53-58.3,409.54Z"/>
    <path class="cls-9" d="M2382.87,2821.35l-87.83-577.18s-14.4-186,92.4-253.21c0,0,79.2-61.2,208.8-37.2,0,0,134.4,26.4,246.01,94.8,0,0,148.41,102.93,233.82,154.36,0,0,100.1,72.55,181.83,67.96,0,0,37.65-210.3,189.18-258.98,0,0,142.35-46.84,240.61,37.65,0,0,157.9,110.19,188.49,385.57,0,0,15.62,113.33-5.62,162.71,0,0-33.06,42.25-54.96,48l-179.36-8.33-80.65,240.94-394.12-105.65,27.22-156.07-237.29-11.02s-137.75-67.95-161.49-86.94l26.12,248.1-433.15,54.5Z"/>
    <path class="cls-34" d="M3173.74,2739.3c73.13,11.15,278.42,46.83,386.17,110.17,14.09,8.29,20.57,25.23,15.72,40.84l-24.8,79.72s-15.17,28.01-87.52,18.67l-278.91-92.19s-67.68-21.01-66.52-63.02c0,0,6.5-38.98,17.07-70.4,5.48-16.3,21.79-26.38,38.8-23.79Z"/>
    <path class="cls-62" d="M1137.58,3019.04l-295.77,55.39-86.41-74.43s141.8-121.65,372.21-81.77l5.25,53.09,2.71,27.35,2.01,20.37Z"/>
    <path class="cls-1" d="M3181.92,2870.34l-18.96,65.11s115.39,18.96,140.94,84.07l160.72-6.59,20.6-57.69s-196.98-60.99-303.3-84.89Z"/>
    <path class="cls-24" d="M1135.57,2998.67c-22.22-4.54-101.17-17.38-154.81,16.06h-61.23s67.37-68.6,213.33-43.41l2.71,27.35Z"/>
    <path class="cls-60" d="M1016.66,2149.66c.3.88.6,1.77.89,2.67-.39-.74-.79-1.45-1.18-2.14l.29-.53Z"/>
    <path class="cls-60" d="M1121.01,2520.65l-39.8-1.85s-26.87-292.07-62.58-364.36c1.48.05,6.9.21,15.62-.17,15.16,33.32,44.42,107.59,58.17,209.8,0,0,10.54,90.99,28.59,156.58Z"/>
    <path class="cls-60" d="M1150.64,2583.9c-1.71-1.2-3.39-2.79-5.05-4.73l5.05,4.73Z"/>
    <path class="cls-65" d="M796.08,2001.99s-11.09-122.01,73.02-182.09c0,0,36.05-21.26,99.83-42.52,0,0,53.61-14.79,107.22,0,0,0,119.24,31.43,164.53,117.39,0,0,20.34,55.46-22.18,57.31l-8.32,1.85s48.07,38.82,23.11,67.48c0,0-15.71,19.41-40.67,9.24,0,0,10.17,34.2-14.79,49.91,0,0-24.96,12.94-48.07,0,0,0,9.24,27.73-10.17,36.97,0,0-39.75,11.09-67.48-12.02,0,0-51.76-27.73-64.7-34.2,0,0-25.88-8.32-56.38-6.47,0,0-80.42,10.17-108.15-19.41,0,0-21.26-22.18-26.81-43.44Z"/>
    <path class="cls-49" d="M753.36,718.21s75.67,89.58,218.45,37.82l48.19-135.64-36.89-48.78-198.11,102.92-31.65,30.94v12.75Z"/>
    <path class="cls-51" d="M1527.29,844.56c-39.42,147.81-108.39,168.75-108.39,168.75-51.74,27.09-121.94,1.23-121.94,1.23-4.44,14.66-10.37,29.53-17.11,44.04-30.58,65.95-77.74,124.7-77.74,124.7-4.92-16.01-28.33-44.34-28.33-44.34-51.73-70.21-224.17-185.99-224.17-185.99,40.65-34.49,64.05-68.97,64.05-68.97l-35.72-136.73-11.81-97.05,45.07-81.55,178.6-84.98,328.87,7.39,40.64,33.25c20.94,113.32-32.02,320.25-32.02,320.25Z"/>
    <path class="cls-7" d="M3225.05,1771.29s-34.44,10.08-46.2-9.24c0,0-10.08-19.32,6.72-40.32l33.6-26.88s-40.8-9.24-18.72-44.52c0,0,16.2-23.52,75.84-5.04l54.6-7.08s61.32,7.92,101.65,29.77c0,0,42,23.52,90.73,81.49,0,0,52.92,55.44,64.68,64.68,0,0,15.96,5.88,28.56,30.24,0,0,34.76,69.75-10.68,162.91,0,0-49.61-24.73-145.41,0l-79.14-59.77s-11.9-4.76-18.45-4.76l-66.05,5.95s-47.01,14.88-43.44-44.63c0,0-58.91-10.71-14.88-67.83,0,0-58.99,1.59-13.43-64.95Z"/>
    <path class="cls-7" d="M3063.04,1235.56s10.06,135.46,161,118.43c0,0,141.52-20.74,214.04-183.41v-12.64s-65.45-78.37-95.79-182.86c0,0,51.4,2.53,77.53-52.25l29.49-58.99s14.33-34.55,14.33-59.83l-262.12-328.22-212.3,12.06-120.63,127.86s-32.52,59.3-19.13,171.22c0,0,1.83,34.85-1.83,73.77,0,0-13.1,97.74,40.23,172.6,0,0,27.13,63.62,114.15,111.34,0,0,35.55,17.78,86.08,16.84l9.28,24.24s-25.91,37.34-34.32,49.83Z"/>
    <path class="cls-7" d="M2502.25,1837.08s41.95,80.24,117.63,63.83c0,0,84.8-14.59,86.63-99.39l18.24-192.4s30.09-51.98,11.85-103.95c0,0-24.62-31-87.54-30.09l-131.31,51.98-15.5,310.03Z"/>
    <path class="cls-51" d="M1519.26,1154.34s-50.53-2.97-42.61,46.57l27.74,61.43s17.83,23.78,13.86,57.47c0,0,1.99,89.18,63.43,143.68,0,0,32.7,49.23,89.18,36.51,0,0,47.56,4.12,88.19-85.06,0,0,29.28-72.05,32.86-95.77l-127.99-126.19-144.67-38.64Z"/>
    <path class="cls-17" d="M1670.08,1427.7c-5.32,1.76-10.74,2.6-16.08,2.6-19.89,0-38.64-11.65-46.99-30.78l-5.33-12.22-112.03-256.84-.74-1.69s-15.84-44.21.84-58.39l-11.77-34.62c-2.22-6.52.78-13.76,7.07-16.58,3.37-1.51,7.95-2.79,14.14-3.42,5.28-.54,10.37,2.16,13,6.78l13.42,23.66s.92-.08,2.51.01h.01c7.42.36,29.48,4.14,42.52,35.01,0,0,14.18-1.66,20.85,0l108.53,274.8,1.65,4.17c10.82,27.4-3.63,58.27-31.6,67.51Z"/>
    <path class="cls-17" d="M3346.04,1642.56s-42.95,4.65-68.31,18.11l-1.5-75.57-.57-28.97s5.69-15.53,17.08-16.56v-28.98s13.97-16.05,34.67,0v24.32s12.94,5.17,13.97,21.74l1.22,22.43,3.44,63.48Z"/>
    <path class="cls-17" d="M3297.39,1946.87v8.28s33.12,18.11,65.21,0v-10.87s-24.32-19.15-65.21,2.59Z"/>
    <path class="cls-44" d="M1570.65,1081.22s-52.36,7.16-81,49.24l-.74-1.69s-15.84-44.21.84-58.39c0,0,15.89-16.39,38.37-24.17h.01c7.42.36,29.48,4.14,42.52,35.01Z"/>
    <path class="cls-44" d="M1670.08,1427.7c-5.32,1.76-10.74,2.6-16.08,2.6-19.89,0-38.64-11.65-46.99-30.78l-5.33-12.22c19.14-15.18,50.16-30.23,98.35-31.28l1.65,4.17c10.82,27.4-3.63,58.27-31.6,67.51Z"/>
    <path class="cls-44" d="M3342.6,1579.08c-30.35-5.58-52.82.18-66.37,6.02l-.57-28.97s5.69-15.53,17.08-16.56v-1.87l34.67-2.79s12.94,5.17,13.97,21.74l1.22,22.43Z"/>
    <path class="cls-51" d="M1578.82,1169.23s-20.43-1-31.39-29.4c0,0-9.97-11.96,13.45-36.37,0,0,40.86-32.89,74.24-47.34,0,0,34.38-15.45,59.29,5.98,0,0,109.33,107.26,100,244.08,0,0-3.56,34.3-22.77,76.7l-73.5-40.36-56.41.55s-49.32-11.45-18.26-50.41c0,0-42.24-4.91-43.6-24.8,0,0-3-16.62,8.45-31.61,0,0-26.71-7.63-28.34-28.34,0,0-5.13-25.04,18.83-38.68Z"/>
    <ellipse class="cls-56" cx="1454" cy="876.52" rx="35.25" ry="10.76"/>
    <path class="cls-11" d="M1296.96,1014.54c-4.44,14.66-10.37,29.53-17.11,44.04-152.43-73.68-178.66-235.45-179.08-238.1,56.08,150.12,196.19,194.06,196.19,194.06Z"/>
    <path class="cls-30" d="M3088.08,1161.5s207.82-13.44,233.34-208.83c0,0,12.76-13.75,6.87,35.35,0,0-6.87,124.69-207.16,234.66l-.98,22.58-32.07-83.76Z"/>
    <path class="cls-45" d="M1066.75,819.74c-9.85,0-15.41-1.92-15.87-2.08-2.34-.84-3.55-3.42-2.71-5.76.84-2.33,3.4-3.54,5.74-2.72.36.12,20.47,6.66,53.72-8.38,2.27-1.02,4.93-.02,5.96,2.25,1.02,2.26.02,4.93-2.25,5.95-19.01,8.6-34.19,10.74-44.58,10.74Z"/>
    <path class="cls-45" d="M1068.59,754.03c-1.01,0-2.02-.34-2.86-1.03-12.56-10.38-18.97-22.02-19.05-34.62-.11-16.99,11.45-30.46,16.6-35.62-12.37-29.04-47.71-50.09-48.08-50.31-2.14-1.26-2.86-4.02-1.6-6.16,1.26-2.14,4.02-2.86,6.16-1.6.41.24,10.29,6.07,21.76,16.03,15.56,13.5,26.09,27.52,31.3,41.67.65,1.77.13,3.77-1.31,4.99-.15.13-15.97,13.83-15.82,31,.08,9.79,5.39,19.11,15.78,27.69,1.92,1.58,2.19,4.42.6,6.33-.89,1.08-2.18,1.63-3.47,1.63Z"/>
    <path class="cls-45" d="M1437.54,816.83c-10.65,0-23.34-1.72-33.93-8.08-2.13-1.28-2.82-4.04-1.54-6.17,1.28-2.13,4.04-2.82,6.17-1.54,19.43,11.66,49.15,4.72,49.45,4.65.08-.02.16-.04.24-.05,9.52-1.76,15.68-5.41,18.31-10.86,4.37-9.05-1.8-20.86-1.87-20.98-.02-.03-.04-.08-.06-.11l-39.19-78.37c-1.11-2.22-.21-4.93,2.01-6.04,2.22-1.11,4.93-.21,6.04,2.01l39.16,78.32c.69,1.3,8.21,16.13,2.03,29.03-3.92,8.18-12.23,13.51-24.69,15.83-1.34.32-10.52,2.36-22.13,2.36Z"/>
    <path class="cls-26" d="M1405.92,614.57c-1.72,0-3.45-.49-4.98-1.51-49.26-32.84-112.54-12.77-113.17-12.57-4.72,1.54-9.8-1.03-11.35-5.75-1.55-4.72,1.02-9.8,5.73-11.35,2.92-.96,72.11-23.08,128.77,14.69,4.14,2.76,5.25,8.34,2.5,12.48-1.73,2.6-4.59,4.01-7.5,4.01Z"/>
    <path class="cls-26" d="M1560.96,618.83c-1.8,0-3.61-.54-5.19-1.65-12.51-8.85-28.99-12.16-48.98-9.86-15.62,1.8-27.51,6.54-27.63,6.59-4.61,1.86-9.85-.36-11.71-4.97-1.86-4.6.35-9.84,4.94-11.71.56-.23,13.89-5.59,31.82-7.73,24.4-2.91,45.83,1.57,61.95,12.98,4.06,2.87,5.02,8.49,2.15,12.54-1.75,2.48-4.53,3.8-7.36,3.8Z"/>
    <path class="cls-45" d="M1578.83,1173.73c-1.38,0-2.74-.63-3.62-1.82-1.48-2-1.06-4.81.94-6.29.7-.52,17.41-12.85,40.05-24.95,30.76-16.44,56.42-24.02,76.28-22.53,2.48.19,4.34,2.35,4.15,4.83-.19,2.48-2.34,4.34-4.83,4.15-43.56-3.29-109.62,45.24-110.29,45.73-.81.6-1.74.88-2.68.88Z"/>
    <path class="cls-45" d="M1588.34,1240.75c-1.57,0-3.1-.82-3.93-2.29-1.22-2.17-.45-4.91,1.71-6.13.26-.15,26.11-14.65,57.45-27.68,42.61-17.72,74.66-24.42,95.28-19.92,2.43.53,3.97,2.93,3.44,5.36-.53,2.43-2.93,3.97-5.36,3.44-45.28-9.87-145.39,46.09-146.4,46.65-.7.39-1.46.58-2.2.58Z"/>
    <path class="cls-45" d="M1623.49,1297.16c-1.71,0-3.34-.98-4.1-2.64-1.03-2.26-.03-4.93,2.23-5.96,3.87-1.76,95.18-42.85,138.01-23.22,2.26,1.04,3.25,3.71,2.22,5.97-1.04,2.26-3.71,3.25-5.97,2.22-39.11-17.92-129.62,22.82-130.53,23.23-.6.27-1.24.4-1.86.4Z"/>
    <path class="cls-45" d="M1737.9,1347.03h-39.74c-2.49,0-4.5-2.01-4.5-4.5s2.01-4.5,4.5-4.5h39.74c2.49,0,4.5,2.01,4.5,4.5s-2.01,4.5-4.5,4.5Z"/>
    <path class="cls-45" d="M1210.18,1958.42c-1.71,0-3.34-.98-4.1-2.63h0c-.07-.16-7.66-16.3-32.2-38.1-41.15-36.56-97.39-60.58-137.32-74.29-2.35-.81-3.6-3.37-2.79-5.72.81-2.35,3.37-3.6,5.72-2.79,40.97,14.07,98.7,38.79,140.99,76.62,25.66,22.95,33.48,39.85,33.8,40.56,1.02,2.26.02,4.93-2.24,5.96-.6.27-1.23.4-1.85.4Z"/>
    <path class="cls-45" d="M1192.61,2035.14c-1.05,0-2.1-.36-2.95-1.1-1.02-.89-103.18-89.29-180.63-120.27-2.31-.92-3.43-3.54-2.51-5.85s3.54-3.43,5.85-2.51c78.87,31.55,182.16,120.94,183.19,121.84,1.88,1.63,2.07,4.47.44,6.35-.89,1.02-2.14,1.55-3.4,1.55Z"/>
    <path class="cls-45" d="M1129.76,2085.05c-1.01,0-2.03-.34-2.87-1.04-.91-.75-91.76-75.71-153.4-93.92-2.38-.7-3.75-3.21-3.04-5.59.7-2.38,3.21-3.75,5.59-3.04,26.69,7.89,61.18,26.4,102.51,55.01,30.65,21.22,53.86,40.42,54.09,40.61,1.91,1.59,2.18,4.42.59,6.34-.89,1.07-2.17,1.63-3.47,1.63Z"/>
    <path class="cls-67" d="M726.04,2035.14c-1.66,0-3.25-.92-4.04-2.51-.63-1.28-15.52-31.88-18.24-71.55-3.64-53.02,16.6-96.46,58.53-125.63,2.04-1.42,4.85-.92,6.26,1.12,1.42,2.04.92,4.84-1.12,6.26-21.83,15.19-37.39,34.31-46.24,56.83-7.1,18.08-9.95,38.44-8.47,60.52,2.55,37.96,17.21,68.17,17.36,68.47,1.1,2.23.18,4.93-2.05,6.02-.64.31-1.32.46-1.98.46Z"/>
    <path class="cls-67" d="M856.87,1790.44c-.62,0-1.24-.13-1.84-.39-77.87-34.88-150.15-59.4-214.83-72.89-51.66-10.78-98.61-14.57-139.52-11.28-36.31,2.92-61.03,10.99-75.38,17.25-15.51,6.77-22.56,12.92-22.63,12.98-1.86,1.64-4.7,1.48-6.35-.37-1.65-1.85-1.5-4.68.35-6.34,1.2-1.07,30.13-26.35,102.05-32.39,41.79-3.51,89.67.23,142.3,11.13,65.58,13.58,138.81,38.37,217.68,73.7,2.27,1.02,3.28,3.68,2.27,5.95-.75,1.67-2.39,2.66-4.11,2.66Z"/>
    <path class="cls-67" d="M641.18,1717.27c-2.26,0-4.2-1.69-4.47-3.99-8.17-71.81-170-99.46-171.63-99.73-2.45-.41-4.11-2.72-3.7-5.18.41-2.45,2.72-4.11,5.17-3.7.42.07,42.62,7.17,85.31,23.55,58.44,22.43,89.99,50.7,93.79,84.04.28,2.47-1.49,4.7-3.96,4.98-.17.02-.34.03-.51.03Z"/>
    <path class="cls-67" d="M682.75,1717.27c-.43,0-.87-.06-1.3-.19-2.38-.72-3.73-3.23-3.01-5.61l94.26-312.01c9.22-45.58,15.33-113.86-7.73-180.64-13.81-39.99-31.81-60.76-31.99-60.96-1.64-1.87-1.46-4.71.4-6.35,1.86-1.64,4.7-1.47,6.35.4.78.88,19.16,21.98,33.58,63.47,13.23,38.06,25.38,101.23,8.18,186.08-.03.14-.06.27-.1.41l-94.32,312.21c-.59,1.94-2.37,3.2-4.31,3.2ZM777.07,1400.56h.01-.01Z"/>
    <path class="cls-67" d="M1129.76,1543.25s-.08,0-.13,0c-2.48-.07-4.44-2.14-4.38-4.62l9.19-335.73c-78.64-70.17-185.65-119.91-261.81-149.34-83.22-32.16-148.6-47.7-149.25-47.85-2.42-.57-3.92-2.99-3.35-5.41.57-2.42,2.99-3.92,5.41-3.35.66.15,66.53,15.8,150.3,48.17,77.41,29.91,186.43,80.64,266.26,152.48.98.88,1.52,2.15,1.49,3.47l-9.25,337.81c-.07,2.44-2.07,4.38-4.5,4.38Z"/>
    <path class="cls-67" d="M1259.65,1468.67c-2.49,0-4.5-2.01-4.5-4.5v-239.1c0-1.31.57-2.55,1.56-3.4,80.01-69.2,145.93-141.48,146.58-142.2,1.67-1.84,4.52-1.97,6.36-.3,1.84,1.67,1.97,4.52.3,6.36-.66.72-66.07,72.46-145.8,141.61v237.04c0,2.49-2.01,4.5-4.5,4.5Z"/>
    <path class="cls-67" d="M1210.18,1207.64c-1.91,0-3.68-1.23-4.29-3.14-31.06-98.17-231.49-224.41-233.51-225.67-.08-.05-.16-.1-.24-.16-60.73-43.57-105.66-87.73-106.1-88.18-1.77-1.75-1.79-4.59-.04-6.36,1.75-1.77,4.59-1.79,6.36-.04.44.44,44.84,44.07,104.91,87.19,2.86,1.8,52.92,33.45,106.06,76.47,73.51,59.51,117.63,111.34,131.14,154.04.75,2.37-.56,4.9-2.93,5.65-.45.14-.91.21-1.36.21Z"/>
    <path class="cls-28" d="M764.86,2866.46c-1.58,0-3.11-.83-3.93-2.31-1.21-2.17-.44-4.91,1.73-6.12.38-.21,38.58-21.4,93.06-39.46,50.4-16.71,125.54-34.14,197.27-22.24,2.45.41,4.11,2.72,3.7,5.18-.41,2.45-2.73,4.1-5.18,3.7-69.86-11.58-143.4,5.49-192.79,21.85-53.72,17.79-91.31,38.63-91.69,38.84-.69.39-1.45.57-2.19.57Z"/>
    <path class="cls-28" d="M601.95,2501.04c-1.96,0-3.76-1.29-4.32-3.26-.49-1.72-49.13-173.58-36.94-291.97.25-2.47,2.46-4.26,4.94-4.02,2.47.25,4.27,2.46,4.02,4.94-12.01,116.65,36.15,286.87,36.64,288.57.68,2.39-.7,4.88-3.09,5.56-.41.12-.83.17-1.24.17Z"/>
    <path class="cls-28" d="M1080.96,2369.88c-2.2,0-4.12-1.61-4.45-3.85-.36-2.46,1.35-4.74,3.8-5.1,1.08-.16,109.57-16.79,269.41-109.59l132.89-76.94c2.15-1.25,4.9-.51,6.15,1.64,1.25,2.15.51,4.9-1.64,6.15l-132.89,76.93c-84.33,48.96-153.85,76.44-197.33,90.86-47.26,15.68-74.18,19.69-75.3,19.85-.22.03-.44.05-.65.05Z"/>
    <path class="cls-28" d="M1459.84,2444.59c-.24,0-.48-.02-.72-.06-2.45-.4-4.12-2.71-3.73-5.16.1-.63,10.47-64.36,30.77-137.51,27.37-98.62,58.8-166.55,93.42-201.91,1.74-1.78,4.59-1.81,6.36-.07,1.78,1.74,1.81,4.59.07,6.36-33.06,33.76-64.58,102.21-91.15,197.93-20.17,72.68-30.48,135.99-30.58,136.62-.36,2.21-2.27,3.79-4.44,3.79Z"/>
    <path class="cls-28" d="M1499.63,2276.34c-1.33,0-2.64-.58-3.53-1.7-12.81-16.14-19.58-36.66-20.13-60.98-.43-19.14,2.99-40.68,10.15-64.02,12.12-39.49,30.55-70.12,31.33-71.41,1.29-2.12,4.05-2.8,6.18-1.52,2.13,1.29,2.8,4.05,1.52,6.18-.19.31-18.7,31.1-30.47,69.55-10.68,34.87-17.88,83.4,8.47,116.6,1.54,1.95,1.22,4.78-.73,6.32-.83.66-1.81.98-2.79.98Z"/>
    <path class="cls-25" d="M3284.66,2010.55c-.51,0-1.02-.09-1.52-.27-31.1-11.18-81.12-38.98-142.75-107.97-36.72-41.1-60.58-77.99-60.82-78.36-1.34-2.09-.74-4.87,1.35-6.22,2.09-1.34,4.87-.74,6.22,1.35.23.36,23.79,36.76,60.06,77.34,33.3,37.26,84.45,85.8,138.99,105.4,2.34.84,3.55,3.42,2.71,5.76-.66,1.84-2.39,2.98-4.23,2.98Z"/>
    <path class="cls-25" d="M3271.17,2098.56c-39.66,0-78.82-6.8-107.69-13.48-41.56-9.61-71.4-21.04-71.7-21.16-2.32-.89-3.47-3.5-2.58-5.82.89-2.32,3.5-3.47,5.82-2.58,1.16.45,117.53,44.72,214.19,31.61,2.47-.34,4.73,1.39,5.06,3.85.33,2.46-1.39,4.73-3.85,5.06-12.9,1.75-26.1,2.5-39.25,2.5Z"/>
    <path class="cls-4" d="M3952.34,1872.98c-.76,0-1.53-.19-2.24-.6-62.53-35.98-140.54-50.33-194.97-56.03-59.17-6.2-104.06-3.8-104.5-3.77-2.46.13-4.61-1.76-4.75-4.24-.14-2.48,1.76-4.61,4.24-4.75.45-.03,45.93-2.46,105.78,3.79,100.27,10.48,163.39,36.89,198.69,57.2,2.15,1.24,2.9,3.99,1.66,6.14-.83,1.45-2.35,2.26-3.9,2.26Z"/>
    <path class="cls-4" d="M3507.78,1473.71c-.85,0-1.71-.24-2.47-.74-2.08-1.37-2.65-4.16-1.28-6.23,49.7-75.41,66.94-157.16,72.65-212.45,6.2-60.06.52-102.78.46-103.21-.34-2.46,1.39-4.73,3.85-5.07,2.46-.34,4.73,1.38,5.07,3.85.24,1.77,5.87,44.02-.4,105.08-5.79,56.37-23.35,139.73-74.12,216.75-.86,1.31-2.3,2.02-3.76,2.02Z"/>
    <path class="cls-4" d="M3704.18,1812.69c-1.95,0-3.75-1.28-4.32-3.25l-53.81-186.32c-12.4-43.09-15.83-87.26-10.18-131.27,4.51-35.18,14.8-70.32,30.57-104.46,26.84-58.1,59.82-92.66,61.21-94.1,1.72-1.79,4.57-1.84,6.36-.12,1.79,1.72,1.84,4.57.12,6.36-.33.34-33.47,35.11-59.66,91.92-15.34,33.27-25.33,67.5-29.71,101.73-5.46,42.72-2.12,85.6,9.92,127.44l53.81,186.32c.69,2.39-.69,4.88-3.07,5.57-.42.12-.84.18-1.25.18Z"/>
    <path class="cls-4" d="M3801.36,1822.63c-.78,0-1.56-.2-2.28-.63-2.14-1.26-2.85-4.01-1.59-6.15.36-.62,9.13-15.29,27.82-27.67,17.2-11.39,46.4-22.89,87.83-12.99,2.42.58,3.91,3.01,3.33,5.42s-3,3.91-5.42,3.33c-30.58-7.32-57.64-3.44-80.43,11.51-17.09,11.22-25.29,24.83-25.38,24.97-.84,1.42-2.34,2.21-3.88,2.21Z"/>
    <path class="cls-4" d="M3684.31,2025.65c-.84,0-1.69-.23-2.44-.72-2.08-1.35-2.68-4.14-1.33-6.22,22.96-35.41,28.33-73.98,28.79-100.1.51-28.48-4.55-48.81-4.6-49.01-.61-2.41.85-4.86,3.26-5.47,2.41-.62,4.86.84,5.47,3.25.22.86,5.37,21.47,4.88,51.09-.45,27.38-6.07,67.83-30.24,105.13-.86,1.33-2.31,2.05-3.78,2.05Z"/>
    <path class="cls-4" d="M2865.25,1881.37c-2.22,0-4.15-1.64-4.45-3.9-8.33-61.61-16.47-405.3-16.82-419.9-1.6-48.08-32.21-85.78-32.52-86.16-1.58-1.92-1.31-4.75.61-6.33,1.92-1.58,4.75-1.31,6.33.6,1.34,1.62,32.87,40.36,34.58,91.63.09,3.62,8.48,357.84,16.74,418.95.33,2.46-1.39,4.73-3.86,5.06-.2.03-.41.04-.61.04Z"/>
    <path class="cls-4" d="M2786.41,1931.7c-.3,0-.61-.03-.91-.09-2.43-.5-4-2.88-3.5-5.31,11.39-55.32-11.45-141.34-11.68-142.2-.65-2.4.78-4.87,3.18-5.51,2.4-.65,4.87.78,5.51,3.17.06.22,5.99,22.39,10.38,51.24,5.92,38.93,6.41,70.93,1.43,95.11-.44,2.13-2.31,3.59-4.4,3.59Z"/>
    <path class="cls-4" d="M2970.94,1443.51c-2.49,0-4.5-2.01-4.5-4.5,0-17.15-36.08-107.5-49.98-140.87-.04-.09-.07-.19-.11-.28-8.32-24.49-16.29-61.6-6.98-99.39,5.64-22.88,14.93-35.12,15.32-35.63,1.52-1.97,4.34-2.33,6.31-.82,1.97,1.51,2.33,4.33.83,6.3h0c-.09.11-8.71,11.59-13.85,32.81-4.74,19.58-7.4,51.72,6.84,93.68,5.46,13.11,50.62,122.2,50.62,144.19,0,2.49-2.01,4.5-4.5,4.5Z"/>
    <path class="cls-35" d="M3188.69,2621.22c-.25,0-.5-.02-.76-.06-2.45-.42-4.1-2.74-3.68-5.19.42-2.46,42.02-247.12,57.8-310.23.6-2.41,3.04-3.88,5.46-3.27,2.41.6,3.88,3.05,3.27,5.46-15.69,62.78-57.24,307.09-57.66,309.55-.37,2.2-2.28,3.75-4.43,3.75Z"/>
    <path class="cls-35" d="M3201.91,2458.59c-73.96,0-204.84-80.56-210.8-84.26-76.66-48.78-248.81-121-250.54-121.72-2.29-.96-3.37-3.6-2.42-5.89.96-2.29,3.59-3.37,5.89-2.41,1.74.73,174.59,73.24,251.85,122.4,1.5.93,155.48,95.74,220.7,81.46,2.42-.54,4.83,1,5.36,3.43.53,2.43-1,4.83-3.43,5.36-5.1,1.12-10.68,1.64-16.61,1.64Z"/>
    <path class="cls-35" d="M2789.9,2523.25c-2.26,0-4.2-1.69-4.46-3.99-.35-3.08-35.55-308.74-75.12-365.52-1.42-2.04-.92-4.84,1.12-6.26,2.04-1.42,4.84-.92,6.26,1.12,40.86,58.63,75.24,356.98,76.68,369.65.28,2.47-1.49,4.7-3.96,4.98-.17.02-.34.03-.51.03Z"/>
    <path class="cls-35" d="M3636.24,2642c-.4,0-.81-.05-1.22-.17-2.39-.67-3.79-3.16-3.11-5.55.65-2.3,65.04-230.94,89.5-330.53.59-2.41,3.03-3.89,5.44-3.3,2.41.59,3.89,3.03,3.3,5.44-24.5,99.74-88.93,328.53-89.58,330.83-.56,1.98-2.36,3.28-4.33,3.28Z"/>
    <path class="cls-35" d="M3681.01,2491.74c-1.48,0-2.93-.73-3.79-2.07-1.34-2.09-.74-4.88,1.35-6.22,55.93-35.93,100.94-149.01,101.38-150.15.91-2.31,3.53-3.45,5.84-2.54,2.31.91,3.45,3.52,2.54,5.84-.11.29-11.65,29.45-30.14,62.75-24.99,45.02-50.14,75.86-74.76,91.67-.75.48-1.6.71-2.43.71Z"/>
    <path class="cls-27" d="M3362.53,910.41c-1.28,0-2.56-.55-3.45-1.61-1.6-1.9-1.35-4.74.56-6.34,10.73-9,15.86-18.25,15.25-27.47-1.1-16.44-19.84-28.49-20.03-28.61-1.3-.82-2.1-2.26-2.1-3.81,0-21.45,37.18-49.34,41.42-52.45,2-1.47,4.82-1.04,6.29.97s1.04,4.82-.97,6.29c-.1.07-9.82,7.23-19.37,16.64-10.62,10.45-16.96,19.68-18.16,26.34,5.85,4.28,20.72,16.76,21.9,33.98.84,12.27-5.36,24.05-18.44,35.02-.84.71-1.87,1.05-2.89,1.05Z"/>
    <path class="cls-27" d="M3004.67,924.64c-10.51,0-19.41-1.76-26.59-5.29-8.39-4.11-11.7-9.38-12.61-11.12-7.71-10.9-8.93-24.98-3.52-40.73,3.97-11.57,10.1-19.98,10.36-20.33.07-.09.14-.18.21-.26,33.24-38.78,23.38-67.54,22.94-68.74-.84-2.33.35-4.91,2.67-5.77,2.32-.86,4.89.31,5.76,2.63.52,1.39,12.36,34.58-24.42,77.59-1.45,2.05-21.03,30.54-6.49,50.66.19.26.35.54.47.83.05.1,9.11,17.58,53.09,9.26,2.45-.46,4.8,1.14,5.26,3.58s-1.14,4.8-3.58,5.26c-8.57,1.62-16.44,2.43-23.56,2.43Z"/>
    <ellipse class="cls-53" cx="2921.17" cy="821.06" rx="19.13" ry="27.3"/>
    <ellipse class="cls-53" cx="1365.4" cy="689.05" rx="19.13" ry="27.3"/>
    <ellipse class="cls-53" cx="1508.38" cy="694.05" rx="19.13" ry="27.3"/>
    <ellipse class="cls-53" cx="3120.41" cy="812.06" rx="19.13" ry="27.3"/>
    <circle class="cls-41" cx="3372.64" cy="935.51" r="15.39"/>
    <path class="cls-8" d="M2986.49,975.84s77.85,9.24,163.61-48.82c0,0,40.62-30.48,33.37,24.68,0,0-15.99,77.1-91.22,99.2-46.56,13.68-96.62-8.06-117.27-51.97-.35-.74-.69-1.48-1.03-2.24,0,0-7.87-21.23,12.54-20.85Z"/>
    <path class="cls-27" d="M3225.05,1775.78c-1.07,0-2.15-.38-3.01-1.16-1.84-1.66-1.99-4.5-.33-6.35.7-.78,17.61-19.32,50.94-33.4,30.57-12.92,81.35-24.3,149.64-5.11,2.39.67,3.79,3.16,3.11,5.55-.67,2.39-3.15,3.79-5.55,3.11-65.54-18.42-114.07-7.69-143.25,4.54-31.64,13.27-48.04,31.15-48.2,31.32-.89.98-2.11,1.48-3.34,1.48Z"/>
    <path class="cls-27" d="M3219.17,1699.34c-1.4,0-2.78-.65-3.66-1.88-1.45-2.02-.98-4.83,1.04-6.28,1.7-1.21,41.98-29.91,82.84-44.96,2.33-.86,4.92.33,5.78,2.67s-.33,4.92-2.67,5.78c-39.69,14.62-80.31,43.54-80.71,43.83-.79.57-1.71.84-2.62.84Z"/>
    <path class="cls-27" d="M3238.48,1840.74c-1.27,0-2.53-.53-3.42-1.58-1.61-1.89-1.39-4.73.5-6.34.87-.74,21.7-18.38,55.24-30.87,31.04-11.57,79.15-20.59,132.04,2.11,2.28.98,3.34,3.63,2.36,5.91-.98,2.28-3.63,3.34-5.91,2.36-40.17-17.24-82.24-17.93-125.05-2.06-32.13,11.91-52.64,29.22-52.84,29.39-.85.72-1.89,1.08-2.92,1.08Z"/>
    <path class="cls-27" d="M3253.35,1908.57c-1.03,0-2.07-.35-2.91-1.07-1.89-1.61-2.12-4.44-.52-6.33.57-.67,14.28-16.59,42.56-28.08,25.84-10.5,69.36-19.12,129.9-.51,2.38.73,3.71,3.25,2.98,5.62-.73,2.38-3.25,3.71-5.62,2.98-31.86-9.79-79.13-17.73-123.37.04-26.43,10.62-39.46,25.62-39.59,25.78-.89,1.04-2.16,1.58-3.43,1.58Z"/>
    <path class="cls-23" d="M3005.62,991.74s88.74-2.34,144.78-42.62c0,0,18.68-10.51,12.26,14.01,0,0-31.53,56.63-113.26,56.05,0,0-20.43,5.84-43.79-17.51,0,0-12.68-9.11,0-9.92Z"/>
    <path class="cls-29" d="M2867,736.44c-2.02,0-4.05-.67-5.72-2.06-3.83-3.16-4.38-8.82-1.22-12.65.52-.63,12.97-15.61,32.79-26.62,27.15-15.08,54.94-15.54,80.38-1.34,4.34,2.42,5.89,7.91,3.47,12.25-2.42,4.34-7.91,5.89-12.25,3.47-19.86-11.09-40.85-10.72-62.42,1.1-16.97,9.3-27.98,22.45-28.09,22.59-1.78,2.15-4.35,3.26-6.94,3.26Z"/>
    <path class="cls-29" d="M3191.87,722.11c-2,0-4.02-.67-5.69-2.03-22.41-18.31-50.07-26.49-82.2-24.3-24.53,1.67-42.57,9.07-42.75,9.14-4.58,1.9-9.85-.26-11.76-4.84-1.91-4.58.24-9.84,4.82-11.76.82-.35,20.5-8.48,47.83-10.45,36.58-2.63,69.59,7.15,95.45,28.27,3.85,3.15,4.42,8.81,1.28,12.66-1.78,2.18-4.37,3.31-6.97,3.31Z"/>
    <path class="cls-68" d="M2794.73,1777s-3.62,25.81-25.01,36.03c-1.89.9-3.91,1.68-6.09,2.31l-161.95,6.17-167.31-236.49-66.49-164.09s-.42-4.56,1.4-11.03c2.31-8.26,8.24-19.63,23.27-28.65,0,0,10.72-5.36,34.32-5.36l188.75,11.8s31.11,3.98,48.27,51.32l130.84,337.99Z"/>
    <path class="cls-21" d="M2769.72,1813.03c-1.89.9-3.91,1.68-6.09,2.31l-161.95,6.17-167.31-236.49-66.49-164.09s-.42-4.56,1.4-11.03c8.01-5.62,19.67-10.42,36.14-10.42l199.48,13.95s21.45,13.94,37.54,56.84l127.28,342.76Z"/>
    <path class="cls-6" d="M2405.05,1670.42s-36.36-17.74-18.62-59.41c0,0,10.64-31.92,54.98-41.68l86.02-21.28s44.34-12.42,62.96,11.53c0,0,16.85,19.51-12.42,39.91l-31.92,15.96,60.3-2.66s19.09-3.53,32.01,16.54c4.57,7.1,4.94,16.14.58,23.38-3.47,5.77-9.96,12.27-21.96,17.72,0,0,25.72,7.09,32.81,16.85,0,0,17.74,18.62-20.4,47.89,0,0,37.25,13.3,7.98,53.21,0,0-56.62,66.9-119.65,66.7,0,0-37.31-11.72-51.5-25.91l-18.62-25.72s-19.51-7.98-19.51-46.11c0,0-46.11-54.09-23.06-86.91Z"/>
    <path class="cls-27" d="M2436.98,1654.52c-1.36,0-2.7-.61-3.58-1.77-1.51-1.98-1.12-4.8.85-6.31,19.18-14.62,107.08-34.55,110.81-35.4,2.44-.55,4.83.98,5.38,3.4.55,2.42-.98,4.83-3.4,5.38-24.89,5.61-92.7,22.62-107.34,33.77-.81.62-1.77.92-2.72.92Z"/>
    <path class="cls-27" d="M2516.79,1859.37c-2.49,0-4.5-2.01-4.5-4.5s2.01-4.5,4.49-4.5h0c.41,0,41.74-.49,85.11-32.81,1.99-1.49,4.81-1.07,6.3.92,1.49,1.99,1.07,4.81-.92,6.3-45.9,34.2-88.68,34.59-90.48,34.59Z"/>
    <path class="cls-27" d="M2464.47,1729.9c-1.84,0-3.57-1.14-4.23-2.97-.84-2.34.37-4.92,2.71-5.76l152.53-54.98c2.33-.84,4.92.37,5.76,2.71s-.37,4.92-2.71,5.76l-152.53,54.98c-.5.18-1.02.27-1.53.27Z"/>
    <path class="cls-27" d="M2516.79,1785.77c-1.77,0-3.45-1.05-4.17-2.8-.94-2.3.16-4.93,2.46-5.87l112.62-46.11c2.3-.94,4.93.16,5.87,2.46.94,2.3-.16,4.93-2.46,5.87l-112.62,46.11c-.56.23-1.14.34-1.7.34Z"/>
    <path class="cls-39" d="M1013.66,883.98s-89.91-122.92-49.56-274.9l66.97-130.51,171.72,6.87s14.6,87.58-75.56,172.58c0,0-12.88,11.16-28.33-16.31,0,0-38.64-76.42-95.31-37.78,0,0-45.51,32.63-20.61,116.77,0,0,18.89,73.84,67.83,90.16,0,0-8.21,47.5-37.16,73.12Z"/>
    <path class="cls-3" d="M2846.2,704.39s57.53-178.59,230.12-191.47c0,0,38.64,87.58,109.9,107.33,0,0,51.52,4.29,50.66,54.95,0,0-19.75,45.51,48.94,87.58,0,0-10.3,24.04,8.59,48.08,0,0,10.3,27.48,30.05,0,0,0,26.62-60.96,81.57-51.52,0,0,52.94,11.09,53.09,74.66,0,0,70.16-123.35-17.36-266.3,0,0,40.84,0,58.35-36.47,0,0,109.4-26.26,53.97-132.74,0,0,0-80.23-64.18-94.81,0,0-14.59-75.85-129.82-26.26,0,0-109.4-35.01-103.57,78.77,0,0-45.22,7.29-21.88,64.18,0,0-164.83-33.55-277.15,53.97,0,0-113.16,72.07-111.28,230.04Z"/>
    <path class="cls-15" d="M3441.87,564.59c-4.1,0-7.95-2.55-9.41-6.63-10.08-28.13-36.77-68.25-106.69-99.61-42.79-19.19-81.74-25.92-82.12-25.99-5.44-.92-9.11-6.08-8.19-11.52.92-5.44,6.07-9.11,11.52-8.2,1.67.28,41.48,7.13,86.55,27.27,26.67,11.92,49.63,26.05,68.23,42.01,23.67,20.3,40.34,43.62,49.54,69.31,1.86,5.2-.84,10.92-6.04,12.79-1.11.4-2.25.59-3.37.59Z"/>
    <path class="cls-15" d="M3450.86,436.03c-13.75,0-24.37-3.9-25.1-4.18-5.17-1.95-7.78-7.71-5.83-12.88,1.94-5.16,7.69-7.77,12.85-5.85.39.14,21.42,7.62,37.95-1.96,10.82-6.28,17.9-18.9,21.03-37.5.92-5.45,6.08-9.11,11.52-8.2,5.45.92,9.12,6.08,8.2,11.52-4.19,24.85-14.58,42.2-30.9,51.58-9.96,5.73-20.54,7.47-29.72,7.47Z"/>
    <path class="cls-15" d="M3422.72,514.86c-8.16,0-13.58-.9-13.97-.96-5.45-.93-9.11-6.09-8.18-11.54.93-5.44,6.07-9.1,11.51-8.18,2.25.37,53.81,8.26,72.43-36.96,2.1-5.11,7.95-7.54,13.05-5.44,5.11,2.1,7.54,7.95,5.44,13.05-10.3,25-30,41.43-56.97,47.5-8.73,1.96-16.87,2.52-23.31,2.52Z"/>
    <path class="cls-15" d="M3389.19,425.42c-.11,0-.22,0-.33,0-12.92-.42-25.29-7.34-35.79-20.03-7.36-8.9-11.37-17.72-11.54-18.09-2.27-5.04-.02-10.96,5.02-13.22,5.03-2.26,10.94-.03,13.21,5,3.27,7.18,15,25.89,29.74,26.36,5.52.18,9.85,4.8,9.67,10.32-.17,5.41-4.62,9.68-9.99,9.68Z"/>
    <path class="cls-15" d="M3362.47,436.05c-.47,0-.95-.03-1.44-.1-22.25-3.2-39.93-15.99-51.13-36.99-8.16-15.29-9.98-29.69-10.05-30.3-.66-5.48,3.24-10.47,8.72-11.13,5.47-.67,10.45,3.23,11.13,8.7.04.27,1.61,11.87,8.12,23.83,8.2,15.05,20.33,23.83,36.06,26.09,5.47.79,9.26,5.85,8.47,11.32-.72,4.98-4.99,8.58-9.89,8.58Z"/>
    <path class="cls-15" d="M3354.58,564.59c-4.78,0-9.01-3.44-9.84-8.32-3.54-20.68-14.97-34.53-33.97-41.16-15.2-5.31-29.78-4.05-29.93-4.03-.06,0-.15.01-.2.02-45.84,3.39-68.17-14-69.1-14.74l12.49-15.62-.09-.07s4.44,3.34,13.35,6.27c8.27,2.72,22.24,5.66,41.79,4.22,1.9-.17,19.04-1.45,37.54,4.82,18.45,6.25,41.72,21.2,47.83,56.93.93,5.44-2.73,10.61-8.17,11.54-.57.1-1.14.14-1.7.14Z"/>
    <path class="cls-15" d="M3350.65,685.67c-1.42,0-2.86-.3-4.23-.95-62.24-29.15-56.82-65.04-54.42-73.73.74-14.81-2.79-26.56-10.51-34.96-13.55-14.74-36.13-15.37-36.35-15.38-.06,0-.17,0-.23,0-58.87-2.35-80.44-41.85-84.46-50.49-9.91-11.75-24.58-17.5-43.6-17.1-15.65.33-28.41,4.85-28.54,4.89-5.19,1.86-10.92-.82-12.79-6.01-1.88-5.19.79-10.91,5.97-12.79.62-.23,15.5-5.57,34.31-6.07,26.02-.68,47.12,8.14,61.05,25.54.62.77,1.12,1.63,1.48,2.55.61,1.47,16.02,37.4,67.28,39.5,2.76.06,31.53,1.23,50.47,21.68,11.85,12.8,17.17,29.98,15.82,51.07-.07,1.17-.18,1.9-.64,2.94-.67,2.15-6.89,26.6,43.65,50.26,5,2.34,7.16,8.3,4.81,13.3-1.7,3.63-5.3,5.76-9.06,5.76Z"/>
    <path class="cls-66" d="M1559.31,524.31s-397.28-43.86-547.38,43.8c0,0-27.39,17.53-37.25,29.58l-21.91,15.34s-196.12,67.93-199.41,105.18c0,0-17.57-17.29,9.45-42.76,0,0,108.74-82.41,205.13-99.93,0,0-33.17-258.75,216.28-302.71,0,0,134.45-34.35,284.49,42.44,0,0,99.24,40.17,90.6,209.07Z"/>
    <path class="cls-52" d="M1365.4,435.35s-4.73-77.59,65.29-82.32c0,0,58.67,1.89,89.89,82.32h-155.18Z"/>
    <path class="cls-43" d="M1106.13,519.94c-3.53,0-6.57-2.67-6.95-6.26-8.44-79.48,3.05-135.03,14.17-167.64,12.25-35.89,26.63-52.72,27.24-53.42,2.53-2.92,6.95-3.23,9.87-.7,2.92,2.53,3.23,6.94.71,9.86-.31.36-13.62,16.26-24.89,49.71-10.5,31.16-21.3,84.33-13.19,160.71.41,3.84-2.38,7.29-6.22,7.7-.25.03-.5.04-.75.04Z"/>
    <path class="cls-43" d="M1369.18,505.75c-3.68,0-6.76-2.87-6.98-6.58l-3.78-63.4c-.23-3.86,2.71-7.17,6.57-7.4,3.86-.22,7.17,2.71,7.4,6.57l3.78,63.4c.23,3.86-2.71,7.17-6.57,7.4-.14,0-.28.01-.42.01Z"/>
    <path class="cls-42" d="M3112.34,2963.01v76.86l-391.51-3.21-1480.56-12.13v-74.16s0-20.16,30.23-21.42h1808.18s34.66,3.11,33.66,34.06Z"/>
    <path class="cls-57" d="M3112.34,2963.01v76.86l-391.51-3.21c-.87-23.85-2.82-72.12-5.55-107.71h363.4s34.66,3.11,33.66,34.06Z"/>
    <path class="cls-19" d="M2922.09,2926.29h-926.69l-511.37-41.53c-35.04-19.47,0-38.94,0-38.94l31.15,2.6,15.57-9.09,502.29,11.69,107.72,5.19,424.48,11.51,293.25,7.96,48.03,7.78c23.36,2.6,15.57,42.83,15.57,42.83Z"/>
    <path class="cls-36" d="M2922.09,2926.29h-353.19l-3.66-58.57,293.25,7.96,48.03,7.78c23.36,2.6,15.57,42.83,15.57,42.83Z"/>
    <path class="cls-59" d="M2880.56,2879.57l-317.98-1.3-439.99,18.17c-11.68-28.55-54.51-36.34-54.51-36.34-45.43-1.3-63.6,29.85-63.6,29.85l-490.6-41.53,54.49-120.96c4.86-8.29,9.44-14.74,13.42-19.68,8.42-10.43,14.16-14.12,14.16-14.12,50.15-22.88,233.42,3.85,237.45,4.44h.07s-172.58-95.18-172.58-95.18l.09-14.97c.01-2.77,1.44-5.19,3.59-6.6,1.34-.87,2.96-1.36,4.68-1.28,528.64,22.92,587.02,156.73,587.02,156.73,154.45-70.08,285.54-44.13,285.54-44.13,46.72,11.68,250.49,32.45,250.49,32.45,33.75,1.3,42.83,23.36,42.83,23.36l45.43,131.09Z"/>
    <path class="cls-58" d="M2256.27,2736.8s-130.13,66.96-177.62,108.2c0,0-10,7.5-18.75-6.88,0,0-93.47-117.19-395.33-256.77,1.34-.87,2.96-1.36,4.68-1.28,528.64,22.92,587.02,156.73,587.02,156.73Z"/>
    <path class="cls-58" d="M1942.19,2767.02s-160.34-62.59-360.4-59.24c8.42-10.43,14.16-14.12,14.16-14.12,50.15-22.88,233.42,3.85,237.45,4.44h.07s87.23,44.74,108.72,68.92Z"/>
    <path class="cls-33" d="M1942.19,2840.88c-1.04,0-2.09-.29-3.02-.91-51.01-33.64-308.99-47.51-311.59-47.64-3.03-.16-5.36-2.75-5.21-5.78.16-3.03,2.75-5.4,5.78-5.2,10.74.56,263.59,14.17,317.07,49.44,2.54,1.67,3.24,5.08,1.56,7.62-1.06,1.6-2.81,2.47-4.6,2.47Z"/>
    <path class="cls-33" d="M2189.37,2829.14c-2.04,0-4-1.14-4.95-3.09-1.33-2.73-.19-6.02,2.54-7.35,6.05-2.95,149.45-72.23,253.04-77.07.05,0,.1,0,.14,0,.95-.02,96.02-1.85,157.74,6.82,3.97.47,171.92,20.28,221.01,19.33.04,0,.07,0,.11,0,2.99,0,5.44,2.39,5.5,5.39.06,3.04-2.36,5.55-5.39,5.6-1.21.02-2.48.03-3.82.03-54.22,0-211.91-18.63-218.76-19.44-.04,0-.08,0-.12-.02-60.13-8.45-152.9-6.79-155.97-6.73-101.3,4.76-247.2,75.26-248.66,75.97-.77.38-1.6.56-2.4.56Z"/>
    <path class="cls-33" d="M2256.2,2857.23c-2.3,0-4.45-1.46-5.22-3.76-.96-2.88.6-6,3.48-6.96,1.29-.43,32.21-10.64,82.17-19.33,46.06-8.01,117.48-16.08,196.14-9.02,3.03.27,5.26,2.94,4.99,5.97-.27,3.03-2.94,5.27-5.97,4.99-148.14-13.29-272.6,27.42-273.84,27.83-.58.19-1.16.28-1.74.28Z"/>
    <path class="cls-33" d="M2716.32,2826.43h-132.71c-3.04,0-5.5-2.46-5.5-5.5s2.46-5.5,5.5-5.5h132.71c3.04,0,5.5,2.46,5.5,5.5s-2.46,5.5-5.5,5.5Z"/>
    <path class="cls-31" d="M1440.21,882.51s15.96-23.26,42.42-21.89c0,0,13.68,0,29.65,7.3,0,0,39.68,10.95,57.93-13.68,0,0,20.98-39.68,57.01-40.59,0,0,26.45-.46,49.26,8.21,0,0,21.89,8.21,37.4-5.93,0,0,20.07-14.6,8.67-44.7,0,0-13.23-32.84-35.12-56.56,0,0-43.07-61.07-11.3-133.91,0,0,32.54-57.34,87.56-72.83,0,0,42.62-11.62,41.84-61.21,0,0,.77-33.32-32.54-51.14,0,0-50.36-26.34-44.17-100.73,0,0,12.4-89.88,106.93-119.32,0,0,103.05-26.34,181.31,15.5l56.56,29.44s36.42,30.99,87.56,18.6c0,0,44.94-4.65,82.13-55.79,0,0,68.96-105.38,244.07-118.55,0,0,120.87-10.85,209.98,58.89,0,0,42.62,49.59,84.46,47.26,0,0,37.19,6.2,96.08-51.91,0,0,103.05-77.48,235.55-13.17,0,0,127.07,60.44,47.26,197.58,0,0-30.99,51.14-106.15,44.17,0,0-29.44-6.2-41.84-10.85,0,0-51.91-21.7-88.33,4.65,0,0-30.22,11.62-37.97,77.48,0,0-22.82,83.75-130.42,103.2,0,0-88.16,19.45-176.32-54.45,0,0-89.46-79.09-178.92-33.71,0,0-103.72,62.23-47.97,154.28,0,0,24.8,29.69,51.66,56.56,0,0,52.35,55.1-5.51,102.63,0,0-61.99,44.77-119.85,1.38l-64.06-54.41s-57.86-61.99-143.27-35.82c0,0-61.99,28.93-48.9,104.7,0,0,28.24,98.5-57.86,152.91,0,0-64.06,35.82-119.16,7.58,0,0-56.48-25.49-97.81-13.09,0,0-31.68,11.02-59.24,53.73,0,0-37.88,40.64-112.96,27.55,0,0-31.68-6.2-55.79-64.06,0,0-19.29-40.64-71.63-39.26,0,0-13.65.32-8.19-6.01Z"/>
  </g>
</svg>