<?xml version="1.0" encoding="UTF-8"?>
<svg version="1.1" xmlns="http://www.w3.org/2000/svg" width="180" height="180">
<path d="M0 0 C2.1065693 0.00315246 4.21171931 -0.02034117 6.31811523 -0.0456543 C17.72948031 -0.10081447 27.95102995 1.82446624 38.37084961 6.56567383 C39.04857422 6.87085938 39.72629883 7.17604492 40.42456055 7.49047852 C61.97643537 17.43356728 76.69142445 33.90786066 86.30834961 55.31567383 C86.9599707 56.76586914 86.9599707 56.76586914 87.62475586 58.24536133 C91.79094485 68.11507842 92.6571822 77.38546687 92.62402344 88.00732422 C92.62087098 90.11389352 92.64436461 92.21904353 92.66967773 94.32543945 C92.7248379 105.73680453 90.7995572 115.95835417 86.05834961 126.37817383 C85.75316406 127.05589844 85.44797852 127.73362305 85.13354492 128.43188477 C75.19045616 149.98375959 58.71616278 164.69874867 37.30834961 174.31567383 C35.8581543 174.96729492 35.8581543 174.96729492 34.37866211 175.63208008 C24.50894502 179.79826907 15.23855657 180.66450642 4.61669922 180.63134766 C2.51012992 180.6281952 0.40497991 180.65168883 -1.70141602 180.67700195 C-13.11278109 180.73216212 -23.33433073 178.80688142 -33.75415039 174.06567383 C-34.431875 173.76048828 -35.10959961 173.45530273 -35.80786133 173.14086914 C-57.35973615 163.19778038 -72.07472523 146.723487 -81.69165039 125.31567383 C-82.12606445 124.34887695 -82.56047852 123.38208008 -83.00805664 122.38598633 C-87.17424563 112.51626924 -88.04048298 103.24588079 -88.00732422 92.62402344 C-88.00417176 90.51745414 -88.02766539 88.41230413 -88.05297852 86.3059082 C-88.10813869 74.89454312 -86.18285798 64.67299348 -81.44165039 54.25317383 C-81.13646484 53.57544922 -80.8312793 52.89772461 -80.5168457 52.19946289 C-70.57375694 30.64758807 -54.09946356 15.93259899 -32.69165039 6.31567383 C-31.72485352 5.88125977 -30.75805664 5.4468457 -29.76196289 4.99926758 C-19.8922458 0.83307859 -10.62185735 -0.03315876 0 0 Z " fill="#0101AA" transform="translate(87.691650390625,-0.315673828125)"/>
<path d="M0 0 C0.70125 0.37125 1.4025 0.7425 2.125 1.125 C2.74375 1.41375 3.3625 1.7025 4 2 C4.60070312 1.69449219 5.20140625 1.38898437 5.8203125 1.07421875 C10.80015285 -1.38000364 17.15081341 -0.53026572 22.3125 1.125 C26.44514048 2.88179049 28.4762223 5.32905062 31 9 C33.21436603 15.6430981 33.01714869 23.5541713 30.25 30 C29.53445368 31.35213581 28.78788398 32.6886966 28 34 C27.46375 34.9075 26.9275 35.815 26.375 36.75 C19.74966665 43.02663159 13.03763659 44.55866973 4.078125 44.37109375 C1 44 1 44 -5 42 C-4.67 48.6 -4.34 55.2 -4 62 C-6.21295616 63.10647808 -7.54672699 63.19588368 -10 63.25 C-10.70125 63.27578125 -11.4025 63.3015625 -12.125 63.328125 C-12.74375 63.21984375 -13.3625 63.1115625 -14 63 C-18.32768425 56.50847362 -15.59865966 46.53043069 -14.625 39.125 C-14.49867187 38.11308594 -14.37234375 37.10117188 -14.2421875 36.05859375 C-13.48737672 30.16352154 -12.55704384 24.33940291 -11.39257812 18.51098633 C-10.74038277 14.33945072 -10.86500676 10.20728923 -11 6 C-11 4.68 -11 3.36 -11 2 C-7.16849256 0.19693768 -4.22877647 -0.35989587 0 0 Z " fill="#F5F5FB" transform="translate(51,52)"/>
<path d="M0 0 C0 1.98 0 3.96 0 6 C-1.2684375 6.00386719 -1.2684375 6.00386719 -2.5625 6.0078125 C-10.52083908 6.27911951 -15.35086326 7.2809482 -21 13 C-21.763125 13.763125 -22.52625 14.52625 -23.3125 15.3125 C-28.77818503 24.01710949 -29.23290707 33.74639672 -27.53125 43.7578125 C-26.44361384 47.68107152 -25.32400553 49.68370889 -22.375 52.5625 C-17.33838377 54.70772543 -13.12301649 54.91016874 -7.85546875 53.375 C-1.04765706 50.45922597 2.81634412 44.90980478 5.8125 38.3125 C6.81490623 35.51631419 7.55602409 32.93024104 8 30 C7.13375 29.9071875 7.13375 29.9071875 6.25 29.8125 C3.06646522 28.66289022 1.89414079 26.74323838 0 24 C-1.24022742 20.27931773 -1.53498967 16.86548877 -1 13 C0.9252318 9.51977329 2.17674843 8.32214192 5.875 6.875 C10.44696279 7.05787851 11.828098 8.75433283 15 12 C18.28156037 21.8446811 16.08664193 33.15963967 11.93359375 42.36328125 C7.97311569 50.14045763 2.81411563 55.63216089 -5.203125 59.17578125 C-7.27205959 60.06777826 -7.27205959 60.06777826 -10 62 C-7.62492145 62.02719556 -5.25016036 62.04693247 -2.875 62.0625 C-1.87726563 62.07506836 -1.87726563 62.07506836 -0.859375 62.08789062 C3.20681354 62.10782292 7.0120092 61.78890161 11 61 C11.36601307 68.32026144 11.36601307 68.32026144 9.6875 71.4375 C6.07874532 74.77893952 1.55264388 74.32797234 -3.08984375 74.28515625 C-7.59647393 73.84356698 -11.05635503 72.12239802 -15 70 C-16.51972692 69.24776059 -18.04050772 68.49764533 -19.5625 67.75 C-20.696875 67.1725 -21.83125 66.595 -23 66 C-23.886875 66.680625 -24.77375 67.36125 -25.6875 68.0625 C-29 70 -29 70 -31.75 69.875 C-34 69 -34 69 -36 67 C-36.375 64.5625 -36.375 64.5625 -36 62 C-33.72285584 59.80137805 -32.02076303 59.00692101 -29 58 C-29.886875 57.38125 -30.77375 56.7625 -31.6875 56.125 C-37.05483833 51.50985398 -39.86276169 46.02244246 -40.44921875 38.95703125 C-40.93758143 27.63693697 -39.02224745 17.76502954 -31.6953125 8.78125 C-23.79421301 0.47963395 -11.11505519 -6.39880471 0 0 Z " fill="#F7F7FC" transform="translate(129,54)"/>
<path d="M0 0 C2.87932743 2.42943252 3.93367105 4.06663022 4.3359375 7.83203125 C4.44065683 17.66517616 4.44065683 17.66517616 2.4375 22.3125 C-3.03016043 27.63996401 -6.34666317 28.92099818 -13.9375 28.9375 C-15.95904385 28.87368576 -17.98040636 28.79683138 -20 28.6875 C-19.45089248 18.86036886 -17.81857774 9.3408309 -16 -0.3125 C-10.73926821 -2.06607726 -5.10888089 -2.23513539 0 0 Z " fill="#0505AB" transform="translate(68,60.3125)"/>
</svg>
